<svg width="192" height="75" viewBox="0 0 192 75" fill="none" xmlns="http://www.w3.org/2000/svg">
  <path
    d="M2.45244 19.64H11.0924V40.664H22.2764V47H2.45244V19.64ZM38.5653 47L37.7973 43.976C36.3253 46.376 34.2773 47.576 31.6533 47.576C29.5093 47.576 27.7493 46.984 26.3733 45.8C25.0293 44.584 24.3573 42.888 24.3573 40.712C24.3573 39.368 24.7413 38.2 25.5093 37.208C26.3093 36.184 27.3973 35.464 28.7733 35.048C30.5653 34.536 33.3333 34.248 37.0773 34.184C37.0773 32.072 36.9813 30.952 36.7893 30.824C36.6293 30.696 36.1173 30.632 35.2533 30.632C34.7093 30.632 33.9573 30.664 32.9973 30.728C31.4613 30.792 29.3813 30.968 26.7573 31.256C26.5013 29.528 26.3093 27.672 26.1813 25.688C27.8773 25.336 29.6533 25.048 31.5093 24.824C33.3653 24.568 35.0293 24.44 36.5013 24.44C39.0613 24.44 40.9813 24.872 42.2613 25.736C43.5413 26.568 44.3733 27.672 44.7573 29.048C45.1413 30.424 45.3173 32.168 45.2853 34.28L45.2373 41.336L45.3813 47H38.5653ZM34.4373 42.2C35.2693 42.2 36.1493 42.04 37.0773 41.72V38.168H36.6933C34.3253 38.168 33.0133 38.296 32.7573 38.552C32.5973 38.712 32.4693 38.952 32.3733 39.272C32.3093 39.592 32.2773 39.896 32.2773 40.184C32.2773 40.952 32.4533 41.48 32.8053 41.768C33.1573 42.056 33.7013 42.2 34.4373 42.2ZM63.8234 24.44C66.3194 24.44 68.2394 25.192 69.5834 26.696C70.9594 28.2 71.6474 30.856 71.6474 34.664C71.6474 37.448 71.3594 39.832 70.7834 41.816C70.2394 43.768 69.6154 45.016 68.9114 45.56C68.0794 46.232 66.8474 46.728 65.2154 47.048C63.5834 47.368 61.7274 47.528 59.6474 47.528C58.0474 47.528 56.2554 47.4 54.2714 47.144C52.2874 46.92 50.5114 46.552 48.9434 46.04V18.2L57.2474 17.864V22.376C57.2474 22.632 57.2314 23.224 57.1994 24.152C57.1994 25.08 57.1674 25.864 57.1034 26.504C57.0394 27.112 56.9434 27.576 56.8154 27.896L57.1034 28.232C57.8394 27.112 58.7674 26.2 59.8874 25.496C61.0074 24.792 62.3194 24.44 63.8234 24.44ZM62.4794 41.768C62.6714 41.448 62.8314 40.696 62.9594 39.512C63.1194 38.328 63.1994 37.192 63.1994 36.104C63.1994 34.824 63.1354 33.816 63.0074 33.08C62.9114 32.344 62.6394 31.768 62.1914 31.352C61.7754 30.904 61.1194 30.68 60.2234 30.68C59.4234 30.68 58.3994 30.792 57.1514 31.016V41.864C58.3354 42.056 59.5674 42.152 60.8474 42.152C61.7754 42.152 62.3194 42.024 62.4794 41.768Z"
    fill="#F79E4C" />
  <path
    d="M125.375 26.312C125.663 26.664 125.871 27.544 125.999 28.952C126.159 30.36 126.239 32.504 126.239 35.384V47H118.031V35.48V33.512C118.031 32.488 117.951 31.848 117.791 31.592C117.535 31.272 116.943 31.112 116.015 31.112C115.567 31.112 115.231 31.128 115.007 31.16C114.111 31.192 113.183 31.4 112.223 31.784V47H104.015V24.92H110.687L111.599 28.616C113.903 25.832 116.655 24.44 119.855 24.44C121.007 24.44 122.079 24.6 123.071 24.92C124.095 25.24 124.863 25.704 125.375 26.312ZM134.303 22.184C133.215 22.184 132.271 21.816 131.471 21.08C130.703 20.344 130.319 19.464 130.319 18.44C130.319 17.416 130.703 16.536 131.471 15.8C132.271 15.064 133.215 14.696 134.303 14.696C135.391 14.696 136.319 15.064 137.087 15.8C137.855 16.536 138.239 17.416 138.239 18.44C138.239 19.464 137.855 20.344 137.087 21.08C136.319 21.816 135.391 22.184 134.303 22.184ZM130.175 24.92H138.383V47H130.175V24.92ZM153.108 47.624C149.268 47.624 146.388 46.728 144.468 44.936C142.58 43.112 141.636 40.248 141.636 36.344C141.636 34.2 141.828 32.328 142.212 30.728C142.628 29.096 143.124 27.96 143.7 27.32C144.436 26.488 145.78 25.8 147.732 25.256C149.716 24.712 151.572 24.44 153.3 24.44C157.428 24.44 160.372 25.32 162.132 27.08C163.892 28.84 164.772 31.656 164.772 35.528C164.772 39.688 163.828 42.744 161.94 44.696C160.052 46.648 157.108 47.624 153.108 47.624ZM153.252 42.008C154.5 42.008 155.316 41.576 155.7 40.712C156.084 39.816 156.276 38.248 156.276 36.008C156.276 34.44 156.196 33.24 156.036 32.408C155.876 31.544 155.572 30.92 155.124 30.536C154.708 30.12 154.052 29.912 153.156 29.912C151.876 29.912 151.14 30.024 150.948 30.248C150.692 30.472 150.484 31.176 150.324 32.36C150.164 33.544 150.084 34.776 150.084 36.056C150.084 38.232 150.292 39.768 150.708 40.664C151.156 41.56 152.004 42.008 153.252 42.008ZM189.266 26.312C189.554 26.664 189.762 27.544 189.89 28.952C190.05 30.36 190.13 32.504 190.13 35.384V47H181.922V35.48V33.512C181.922 32.488 181.842 31.848 181.682 31.592C181.426 31.272 180.834 31.112 179.906 31.112C179.458 31.112 179.122 31.128 178.898 31.16C178.002 31.192 177.074 31.4 176.114 31.784V47H167.906V24.92H174.578L175.49 28.616C177.794 25.832 180.546 24.44 183.746 24.44C184.898 24.44 185.97 24.6 186.962 24.92C187.986 25.24 188.754 25.704 189.266 26.312Z"
    fill="#F79E4C" />
  <path
    d="M95.413 43.4014C91.0954 47.8388 84.2937 48.1723 79.6022 44.4026L78.8435 45.6264L78.5017 44.6561L76.0227 46.3905L77.2094 44.3418L76.7375 43.6154L77.9394 42.7823C73.8411 37.9555 74.0282 30.6197 78.5017 26.0225C84.0559 20.3152 88.8407 25.1911 96.2731 21.4066L99.0301 17.0022L98.1231 21.5125L102.793 17L99.5198 23.1054L105 21.3597L99.9769 24.9918C96.1303 32.7635 101.189 37.4657 95.413 43.4014ZM87.5277 35.6015C87.5176 35.1548 87.4829 34.7111 87.4508 34.2656C86.9667 34.23 86.4893 34.1979 86.0537 34.191C85.8239 34.6086 85.8949 35.1244 86.2252 35.4639C86.575 35.8234 87.1158 35.882 87.5277 35.6015ZM88.5065 36.0465C87.6342 36.9135 86.4382 37.1028 85.5345 36.1741C84.6587 35.2742 84.81 34.1002 85.5797 33.1894C86.5201 33.1824 87.4187 33.2584 88.3536 33.3318C88.4271 34.2361 88.5027 35.1378 88.5065 36.0465ZM90.0794 37.975C89.2235 38.7482 87.9058 39.2523 86.9574 39.2523C84.5328 39.2523 82.5388 37.2035 82.5388 34.7124C82.5405 33.3939 83.4492 31.3017 84.7052 30.8042C85.8349 30.4412 89.1761 30.9275 90.6501 30.9114L89.6641 31.9247C88.0934 31.9117 86.6502 31.6894 85.0411 31.748C84.1023 32.4795 83.5151 33.469 83.5151 34.7124C83.5172 36.6521 85.0685 38.2476 86.9574 38.2476C87.9337 38.2476 88.7157 37.8673 89.3603 37.2361L90.0794 37.975ZM92.2504 29.2873C88.7964 29.7409 85.172 28.0521 82.8244 30.4647C80.541 32.8112 80.5405 36.6126 82.824 38.9592C85.1091 41.3075 88.8056 41.3075 91.0903 38.9592C93.5558 36.426 91.8132 32.9923 92.2504 29.2873ZM93.4105 28.0903C92.7367 32.4795 94.6927 36.6778 91.7815 39.6695C89.1178 42.4063 84.7965 42.4063 82.1332 39.6695C79.4683 36.9309 79.4683 32.4934 82.1332 29.7544C84.6545 27.1638 89.9662 28.6695 93.4105 28.0903ZM93.4553 41.4443C89.8496 45.1202 84.0271 45.1111 80.4324 41.4169C76.8305 37.7154 76.8309 31.7085 80.4328 28.007C84.5476 23.7784 90.2881 27.1096 96.1654 24.5946L96.481 24.9193L95.4747 25.953C90.3008 27.8815 84.7458 24.9948 81.1235 28.7168C77.9014 32.0285 77.901 37.395 81.1235 40.7066C84.3372 44.0092 89.5399 44.0183 92.7641 40.734L93.4553 41.4443ZM94.2609 42.2179C99.2148 37.1271 94.7442 32.0979 98.1328 25.0157L96.3931 23.2279C89.5838 26.6698 84.4298 22.2983 79.6538 27.2064C75.6197 31.3521 75.6192 38.0722 79.6534 42.2179C83.6875 46.3632 90.2272 46.3632 94.2609 42.2179Z"
    fill="#1027FA" />
</svg>